<?xml version="1.0" encoding="utf-8"?>
<!-- Generator: Adobe Illustrator 24.1.3, SVG Export Plug-In . SVG Version: 6.00 Build 0)  -->
<svg version="1.1" xmlns="http://www.w3.org/2000/svg" xmlns:xlink="http://www.w3.org/1999/xlink" x="0px" y="0px"
	 viewBox="0 0 792 612" style="enable-background:new 0 0 792 612;" xml:space="preserve">
<style type="text/css">
	.st0{display:none;}
	.st1{display:inline;}
	.st2{fill:#FFFFFF;stroke:#000000;stroke-miterlimit:10;}
	.st3{fill:#231F21;}
	.st4{display:inline;fill:#FFFFFF;stroke:#000000;stroke-miterlimit:10;}
	.st5{fill:#665B61;}
	.st6{fill:#CE002C;}
	.st7{fill:#FFDBA1;}
	.st8{fill:#FFA69B;}
	.st9{fill:#FFFFFF;stroke:#231F20;stroke-miterlimit:10;}
	.st10{fill:#D6817B;}
	.st11{fill:#231F20;}
</style>
<g id="Body" class="st0">
	<g class="st1">
		
			<rect x="352.66" y="488.85" transform="matrix(0.7746 0.6324 -0.6324 0.7746 405.0255 -115.943)" class="st2" width="25.05" height="42.9"/>
		<path class="st3" d="M371.38,522.52l-19.41-15.84l-7.31,8.95c-0.84,0.49-1.62,1.09-2.3,1.83c-4.22,4.6-3.28,12.32,2.1,17.25
			s13.15,5.19,17.37,0.59c0.99-1.08,1.69-2.34,2.12-3.68L371.38,522.52z"/>
	</g>
	<g class="st1">
		
			<rect x="434.9" y="488.85" transform="matrix(-0.7746 0.6324 -0.6324 -0.7746 1116.7454 622.6186)" class="st2" width="25.05" height="42.9"/>
		<path class="st3" d="M441.24,522.52l19.41-15.84l7.31,8.95c0.84,0.49,1.62,1.09,2.3,1.83c4.22,4.6,3.28,12.32-2.1,17.25
			s-13.15,5.19-17.37,0.59c-0.99-1.08-1.69-2.34-2.12-3.68L441.24,522.52z"/>
	</g>
	<g class="st1">
		<path class="st2" d="M457.04,410.67c-4.22-4.6-11.99-4.33-17.37,0.59s-6.32,12.65-2.1,17.25c0.68,0.74,30.21,36.07,30.21,36.07
			l19.41-15.84C487.18,448.75,458.03,411.75,457.04,410.67z"/>
		<path class="st3" d="M457.72,452.28l19.41-15.84l7.31,8.95c0.84,0.49,1.62,1.09,2.3,1.83c4.22,4.6,3.28,12.32-2.1,17.25
			s-13.15,5.19-17.37,0.59c-0.99-1.08-1.69-2.34-2.12-3.68L457.72,452.28z"/>
	</g>
	<ellipse class="st4" cx="407.35" cy="445.2" rx="54.8" ry="63.18"/>
</g>
<g id="Balloon_Arm">
	<g>
		<path class="st2" d="M378.44,405.79c3.79,4.95,2.18,12.57-3.61,17c-5.79,4.43-13.56,4.01-17.35-0.94
			c-0.61-0.8-30.25-36.03-30.25-36.03l18.99-16.35C346.2,369.47,377.55,404.63,378.44,405.79z"/>
		<path class="st3" d="M337.59,397.87l18.99-16.35l-7.54-8.75c-0.34-0.91-0.79-1.78-1.4-2.58c-3.79-4.95-11.56-5.38-17.35-0.94
			s-7.41,12.05-3.61,17c0.89,1.16,2.01,2.07,3.26,2.73L337.59,397.87z"/>
	</g>
	<polygon class="st5" points="337.65,198.39 337.65,425.17 335.63,425.17 335.63,198.14 	"/>
	<path class="st6" d="M404.41,118.27c0-44.26-29.29-80.14-65.42-80.14c-36.13,0-65.42,35.88-65.42,80.14
		c0,40.62,24.67,74.16,56.66,79.41l-5.24,7.72h22.28l-4.09-7.16C377.35,195.58,404.41,160.8,404.41,118.27z"/>
</g>
<g id="Head" class="st0">
	<g class="st1">
		<path class="st7" d="M393.21,331.17c0.25-2.88-1.24-5.63-4.13-5.63c-4.65,0-7.23,3.82-7.48,8.95c-0.18,3.78,2.71,9.24,2.71,9.24
			l8.7-3.39c0,0-3.11-3.32-1.88-5.35C391.13,335,393.08,332.67,393.21,331.17z"/>
		<path class="st7" d="M420.62,331.17c-0.25-2.88,1.24-5.63,4.13-5.63c4.65,0,7.23,3.82,7.48,8.95c0.18,3.78-2.71,9.24-2.71,9.24
			l-8.7-3.39c0,0,3.11-3.32,1.88-5.35C422.7,335,420.75,332.67,420.62,331.17z"/>
	</g>
	<g class="st1">
		<path class="st3" d="M432,345.54c0,0,2.34-12.44,7.84-19.11c3.5-4.25,9.77-3.96,12.62-1.85c2.86,2.11,7.62,15.47-16.64,25.03"/>
		<path class="st8" d="M434.01,349.2c6.63-2.64,12.2-5.28,15.17-8.11c5.94-5.66,5.07-13.78,1.48-14.54
			c-5.48-1.9-7.87,6.31-9.72,14.65c-0.58,2.63-4.82,5.28-7.05,6.21L434.01,349.2z"/>
	</g>
	<g class="st1">
		<path class="st8" d="M382.62,345.13l-16.29-23.68c0,0-12.76,8.82-1.79,22.02c2.36,2.84,13.21,4.62,13.21,4.62L382.62,345.13z"/>
		<path class="st3" d="M382.62,344.84l-16.4-23.4c0,0-10.69,7.39-1.5,18.46c1.98,2.38,13.82,7.42,13.82,7.42L382.62,344.84z"/>
	</g>
	<g class="st1">
		<ellipse class="st9" cx="407.35" cy="377.85" rx="46.09" ry="39.11"/>
		<path class="st3" d="M443.91,364.28c0,5.86-3.11,12.09-7.94,15.61c-2.47-2.98-7.13-6.75-15.12-10.51
			c-5.71-2.69-13.5-2.52-15.57-2.51c-1.34,0-0.74-12.78-0.74-17.44c0-5.52,10.64-6.77,16.54-5.99
			C432.24,344.93,443.91,354.29,443.91,364.28z"/>
	</g>
	<g class="st1">
		<ellipse class="st8" cx="407.35" cy="396.02" rx="34.36" ry="29.15"/>
		<ellipse class="st10" cx="382.62" cy="402.81" rx="1.69" ry="3.39"/>
		<ellipse class="st10" cx="432.24" cy="402.81" rx="1.69" ry="3.39"/>
	</g>
	<g class="st1">
		<circle class="st11" cx="391.93" cy="362.81" r="4.06"/>
		<circle cx="422.93" cy="362.81" r="4.06"/>
	</g>
</g>
</svg>
